<svg width="2186" height="1890" viewBox="0 0 2186 1890" fill="none" xmlns="http://www.w3.org/2000/svg">
<path d="M1064.39 1418.04C1217.47 1533.61 1126.89 1606.55 1113.39 1658.55L1085.89 1730.55L1064.39 1801.82L1064.39 1874.05" stroke="#3EC363" stroke-width="31" stroke-linecap="round"/>
<path d="M1047.8 1427.44C1055.67 1426.82 1069.43 1421.93 1078.92 1416.26C1137.58 1381.05 1203.03 1262.13 1213.89 1170.82C1222.35 1099.32 1203.89 1027.93 1161.53 968.332C1132.7 927.912 1097.56 898.51 1053.03 877.396L1040.38 871.334L1042.01 859.1C1051.19 790.464 1022.17 732.727 958.435 692.588C941.335 681.879 887.941 660.985 844.182 647.92C775.297 627.282 742.69 614.379 710.461 594.843C625.167 543.28 582.143 467.532 580.96 366.884C580.841 352.584 583.552 312.417 584.919 309.033C585.202 308.333 586.949 314.332 588.901 322.315C600.511 371.526 623.605 414.382 658.812 451.817C734.029 531.884 848.628 565.019 953.404 537.042C1011.73 521.518 1062.25 488.314 1097.55 442.584C1113.99 421.127 1122.05 406.874 1132.89 380.036C1160.04 312.826 1158.13 241.745 1127.16 173.175C1101.35 116.054 1057.78 69.4059 999.702 36.9807C984.108 28.2373 948.487 14.2524 930.607 9.74332C866.048 -6.29611 804.702 -2.17052 745.269 22.1373C689.127 45.0604 643.665 85.3288 613.383 138.924C602.772 157.711 586.577 202.068 576.525 239.405C531.742 405.771 572.157 533.535 693.57 609.6C726.304 630.019 771.875 648.567 841.825 669.77C921.007 693.754 953.813 709.723 980.899 737.361C1005.09 762.201 1017.12 786.879 1020.51 819.06C1021.67 829.709 1021.14 849.176 1019.61 859.01L1018.75 864.36L1003.42 861.017C984.341 856.975 965.701 855.416 954.432 856.97C942.355 858.742 923.488 867 914.724 874.454C883.763 900.899 879.605 936.817 904.578 962.923C943.852 1004.17 999.941 979.6 1028.51 908.889L1035.11 892.553L1047.44 898.348C1117.78 931.384 1172.51 1003.44 1188.52 1083.75C1196.12 1122.25 1195.04 1162.67 1185.32 1202.72C1180.53 1222.77 1157.52 1280.8 1146.94 1299.87C1123.13 1342.78 1097.32 1376.05 1075.2 1392.36C1067.65 1397.86 1051.91 1404.8 1041.78 1407.09C1037.84 1407.94 1036.36 1409.11 1035.14 1412.14C1032.92 1417.63 1033.11 1420.01 1036.43 1423.53C1039.99 1427.54 1041.27 1427.93 1047.8 1427.44ZM921.139 948.983C909.191 936.555 907.37 924.689 915.283 909.019C926.331 887.015 948.048 875.973 975.249 878.411C989.709 879.639 1012.16 884.229 1012.92 885.896C1013.92 888.062 1001.57 915.783 995.362 925.086C987.392 937.339 976.607 948.726 967.621 954.597C950.519 965.604 935.535 963.893 921.139 948.983Z" fill="#E42944"/>
<path d="M587.408 213.146C699.014 89.3401 829.059 76.8433 936.781 100.946C991.374 113.161 1040.17 134.802 1077.64 156.221C1101.77 170.016 1120.79 183.481 1133.51 194.004C1128.87 180.831 1123.2 167.971 1116.57 155.543C1107.91 149.796 1098.37 143.883 1088.06 137.99C1049.18 115.759 998.415 93.217 941.367 80.4527C836.591 57.0094 710.416 66.6363 598.922 171.368C593.833 185.14 590.013 199.106 587.408 213.146Z" fill="black"/>
<path d="M588.305 311.21C704.572 185.125 837.287 162.778 947.103 176.933C1034.09 188.146 1106.79 222.219 1146.15 245.399C1147.39 254.066 1148.2 262.798 1148.56 271.564C1116.82 250.844 1039.47 210.013 944.419 197.761C837.72 184.007 708.834 206.19 596.109 333.908L593.16 331.304C591.283 324.666 589.663 317.963 588.305 311.21Z" fill="black"/>
<path d="M608.571 372.719C723.534 251.213 849.033 237.322 951.286 260.676C1003.95 272.705 1050.29 294.547 1085.83 316.247C1107.48 329.466 1125.4 342.806 1138.43 354.072C1136.3 361.303 1133.84 368.495 1131.02 375.63C1119.28 364.656 1100.06 349.541 1074.88 334.171C1040.82 313.372 996.591 292.565 946.61 281.149C849.263 258.915 729.488 272.043 618.793 392.549C615.116 386.059 611.705 379.443 608.571 372.719Z" fill="black"/>
<path d="M1094.11 439.944C1078.53 426.378 1060.88 412.537 1041.78 399.843C992.119 366.853 930.866 340.485 869.458 349.115C810.936 357.34 758.266 374.438 721.365 400.549C698.239 416.913 680.984 437.129 672.753 460.947C678.362 466.195 684.206 471.25 690.277 476.096C695.302 453.594 710.288 434.112 733.495 417.691C766.631 394.244 815.645 377.884 872.381 369.911C926.231 362.342 982.104 385.412 1030.15 417.335C1048.51 429.526 1065.47 442.846 1080.44 455.888C1085.2 450.777 1089.76 445.461 1094.11 439.944Z" fill="black"/>
<path d="M1061.78 1448.64C1063.44 1442.92 1063.69 1431.97 1062.25 1423.87C1053.26 1373.7 987.639 1298.14 926.792 1268C879.132 1244.42 824.391 1239.93 771.535 1255.25C735.661 1265.71 705.799 1283.35 679.227 1309.67L671.635 1317.14L663.53 1312.97C618.059 1289.59 570.046 1295.93 525.092 1331.17C513.072 1340.63 484.3 1373.28 463.553 1401.04C430.843 1444.71 413.172 1464.61 390.972 1482.62C332.314 1530.3 268.008 1542.12 197.439 1518.2C187.425 1514.77 160.108 1502.97 158.109 1501.17C157.696 1500.8 162.347 1501.04 168.438 1501.62C205.874 1505.51 241.925 1499.7 277.411 1483.99C353.287 1450.45 406.867 1377.5 415.179 1296.47C419.842 1251.38 410.088 1207.46 387.547 1171.23C376.936 1154.33 369.129 1145.12 353.277 1130.85C313.577 1095.1 263.452 1078.97 207.36 1084.03C160.628 1088.25 116.49 1107.6 78.4231 1140.74C68.1765 1149.62 48.9494 1171.39 41.051 1182.93C12.7005 1224.68 -0.720352 1269.11 0.454693 1317.14C1.53786 1362.51 17.5664 1404.59 46.9309 1439.2C57.2258 1451.33 83.8843 1473.7 107.276 1489.99C211.505 1562.6 311.427 1565.42 396.784 1498.2C419.735 1480.06 444.791 1452.37 478.179 1408.08C515.96 1357.94 535.824 1338.65 562.314 1326.28C586.08 1315.27 606.503 1312.82 629.868 1318.34C637.61 1320.13 651.057 1325.3 657.515 1328.8L661.019 1330.73L654.612 1340.75C646.722 1353.26 640.681 1366.07 638.772 1374.42C636.799 1383.41 637.55 1398.79 640.424 1406.82C650.657 1435.24 674.624 1447.01 699.483 1435.76C738.712 1418.11 736.463 1372.38 694.696 1334.77L685.047 1326.08L692.367 1318.78C734.12 1277.12 798.961 1256.12 859.274 1264.53C888.165 1268.62 916.089 1279.33 941.467 1296.05C954.189 1304.38 988.578 1334.93 999.079 1347.11C1022.7 1374.51 1039.07 1400.96 1044.58 1420.62C1046.42 1427.32 1047.08 1440.17 1045.98 1447.9C1045.98 1447.9 1045.95 1452.23 1047.74 1453.84C1050.98 1456.76 1056.03 1455.72 1056.03 1455.72C1059.78 1454.19 1060.39 1453.38 1061.78 1448.64ZM694.153 1420.61C682.303 1426.01 673.536 1424.38 664.701 1414.93C652.277 1401.7 650.34 1383.62 659.27 1364.97C663.968 1355.03 673.138 1340.28 674.504 1340.15C676.28 1339.97 692.349 1355.53 697.194 1362.21C703.629 1370.86 708.713 1381.3 710.422 1389.1C713.561 1403.91 708.386 1414.09 694.153 1420.61Z" fill="#F7C461"/>
<path d="M95.9797 1477.93C37.5056 1368.11 63.1286 1272.77 108.663 1202.33C131.532 1166.96 159.42 1137.93 184.17 1116.82C202.135 1101.49 217.981 1090.73 228.7 1084.69C214.723 1084.41 200.623 1085.56 186.634 1088.14C181.456 1092.12 176.085 1096.45 170.604 1101.13C144.598 1123.31 115.19 1153.88 90.9583 1191.37C47.104 1259.21 20.195 1349.94 61.2217 1453.46C61.2944 1453.53 61.3672 1453.6 61.44 1453.66C72.104 1463.26 83.6203 1471.39 95.762 1478.05L95.9797 1477.93Z" fill="black"/>
<path d="M157.279 1498.84C100.72 1385.36 120.538 1285.68 159.713 1211.23C190.232 1153.23 232.496 1110.44 259.478 1087.72C268.054 1089.25 276.512 1091.36 284.795 1094.05C262.86 1110.38 212.711 1155.31 178.387 1220.54C140.739 1292.09 122.13 1387.88 180.866 1498.2L175.978 1500.83C169.704 1500.46 163.464 1499.8 157.279 1498.84Z" fill="black"/>
<path d="M205.987 1500.37C151.803 1388.61 175.621 1295.75 219.402 1228.66C241.973 1194.07 269.737 1166.45 294.498 1146.5C309.136 1134.7 322.971 1125.39 334.305 1118.86C340.037 1122.93 345.584 1127.36 350.918 1132.16C351.204 1132.42 351.489 1132.68 351.774 1132.94C341.226 1138.35 325.379 1148.25 307.595 1162.58C284.195 1181.43 258.125 1207.42 237.055 1239.7C196.012 1302.6 173.518 1389.87 228.159 1497.22C220.792 1498.66 213.389 1499.72 205.987 1500.37Z" fill="black"/>
<path d="M383.42 1170.8C369.713 1178.55 355.264 1187.7 341.225 1198.17C304.794 1225.35 269.531 1262.69 259.043 1309.14C249.188 1352.78 247.055 1394.69 255.612 1427.75C260.891 1448.14 270.423 1465.61 284.922 1477.69C291.814 1474.22 298.582 1470.37 305.192 1466.14C290.971 1457.57 281.369 1442.6 276.068 1422.12C268.642 1393.43 270.174 1355.15 279.638 1313.24C288.469 1274.14 318.837 1240.74 353.68 1214.75C366.89 1204.89 380.514 1196.27 393.433 1188.96C390.445 1182.74 387.108 1176.68 383.42 1170.8Z" fill="black"/>
<path d="M1041.73 1427.46C1046.1 1433.98 1056.94 1443.5 1066.34 1448.91C1124.59 1482.33 1256.43 1480.09 1338.38 1444.2C1402.54 1416.06 1453.43 1364.61 1482.74 1298.29C1502.56 1253.23 1510.05 1208.15 1505.98 1159.03L1504.88 1145.05L1515.95 1140.4C1578.05 1114.3 1612.32 1060.48 1614.83 985.261C1615.45 965.112 1606.87 908.421 1596.43 863.975C1580.05 793.973 1574.93 759.282 1575.56 721.628C1577.11 622.043 1619.64 547.127 1703.55 496.154C1715.49 488.955 1750.53 471.374 1754.04 470.881C1754.77 470.779 1750.59 475.271 1744.84 480.926C1709.22 515.419 1684.54 556.722 1670.34 605.843C1639.93 710.83 1668.19 826.692 1742.93 903.706C1784.5 946.605 1837.08 973.953 1892.74 981.884C1918.79 985.494 1934.7 985.412 1962.53 981.501C2032.23 971.705 2090.96 934.772 2133.36 873.878C2168.68 823.136 2186.52 762.193 2185.32 695.713C2185.03 677.846 2179.34 640.002 2174.38 622.254C2156.26 558.287 2122.79 507.114 2073.31 467.616C2026.6 430.287 1970.56 410.83 1910.75 411.156C1889.79 411.274 1844.64 419.236 1808.38 429.044C1646.83 472.754 1559.36 571.219 1554.91 714.297C1553.78 752.828 1560.51 801.567 1576.93 872.774C1595.54 953.369 1598.19 989.754 1588.24 1026.97C1579.22 1060.28 1564.4 1082.96 1539.04 1101.88C1530.67 1108.17 1514.07 1117.37 1505.07 1120.92L1500.15 1122.83L1495.46 1107.87C1489.52 1089.31 1481.71 1072.37 1474.89 1063.36C1467.5 1053.77 1451.34 1041.5 1440.79 1037.59C1403.45 1023.86 1371.26 1038.07 1361.57 1072.69C1346.16 1127.23 1394.22 1163.7 1467.56 1153.39L1484.5 1151.01L1485.66 1164.58C1492.35 1242.01 1458.64 1325.24 1399.06 1378.99C1370.47 1404.69 1336.01 1423.8 1297.64 1435.25C1278.46 1441.04 1218.5 1449.87 1197.31 1450.16C1149.65 1450.8 1109.09 1444.92 1084.58 1433.82C1076.27 1430.01 1062.74 1419.79 1055.86 1412.14C1055.86 1412.14 1051.52 1408.44 1048.37 1408.89C1042.69 1409.69 1039.45 1415.66 1039.45 1415.66C1037.82 1420.74 1038.13 1422.04 1041.73 1427.46ZM1381.37 1080.14C1385.96 1063.61 1395.03 1056.14 1412.05 1055.23C1435.93 1053.89 1455.82 1067.26 1467.08 1092.06C1473.12 1105.22 1480.25 1126.97 1479.23 1128.46C1477.9 1130.4 1448.59 1133.44 1437.74 1132.67C1423.56 1131.84 1408.72 1128.14 1399.4 1123.25C1381.79 1113.88 1375.9 1100.03 1381.37 1080.14Z" fill="#618BF7"/>
<path d="M1835.45 425.561C1994.03 460.915 2068.2 567.566 2100.68 673.031C2117.14 726.456 2122.85 779.528 2123.2 822.651C2123.42 850.483 2121.42 873.689 2118.81 889.94C2127.73 879.225 2135.88 867.755 2143.16 855.644C2143.74 845.32 2144.03 834.153 2143.94 822.343C2143.57 777.568 2137.66 722.341 2120.46 666.517C2088.9 564.058 2019.16 459.434 1876.83 414.644C1862.54 417.082 1848.72 420.759 1835.45 425.561Z" fill="black"/>
<path d="M1754.02 474.759C1916.78 513.055 2000.45 617.102 2042.29 719.375C2075.43 800.408 2082.4 880.393 2082.2 926.058C2075.43 931.525 2068.38 936.64 2061.08 941.373C2062.94 903.551 2059.36 816.221 2023.15 727.698C1982.49 628.28 1900.79 527.471 1738.46 493.064L1739.26 489.21C1744 484.192 1748.92 479.37 1754.02 474.759Z" fill="black"/>
<path d="M1712.26 522.852C1870.57 562.28 1943.62 664.271 1974.04 764.559C1989.71 816.216 1994.04 867.258 1993.22 908.87C1992.71 934.256 1990.28 956.465 1987.18 973.389C1979.98 975.157 1972.64 976.606 1965.17 977.717C1968.62 962.098 1971.9 937.973 1972.48 908.568C1973.28 868.705 1969.1 820.012 1954.23 770.984C1925.27 675.491 1855.65 578.108 1700.43 541.866C1704.13 535.348 1708.08 529.004 1712.26 522.852Z" fill="black"/>
<path d="M1893.41 977.608C1897.19 957.312 1900.19 935.079 1901.5 912.141C1904.89 852.663 1897.05 786.447 1859.78 737.477C1824.25 690.797 1784.14 653.594 1744.17 634.54C1719.11 622.591 1693.63 617.635 1669.53 622.351C1667.85 629.893 1666.45 637.546 1665.34 645.294C1686.59 638.536 1710.2 641.845 1735.33 653.825C1771.23 670.937 1808.95 705.346 1843.4 750.618C1876.12 793.6 1884.08 853.528 1880.79 911.029C1879.54 932.934 1876.67 954.198 1873.07 973.608C1879.77 975.226 1886.56 976.563 1893.41 977.608Z" fill="black"/>
<path d="M1075.28 1417.71C1079.99 1420.02 1089.47 1421.91 1096.73 1421.91C1141.71 1421.78 1217.44 1376.33 1252.96 1328.07C1280.75 1290.26 1293.04 1243.38 1287.83 1195.09C1284.23 1162.31 1273.48 1133.66 1254.67 1106.53L1249.35 1098.79L1254.21 1092.38C1281.5 1056.45 1283.35 1013.75 1259.62 969.279C1253.23 957.383 1229.26 927.374 1208.32 905.09C1175.38 869.97 1160.79 851.563 1148.55 829.51C1116.1 771.226 1115.68 713.527 1147.28 655.862C1151.79 647.685 1166.23 625.752 1168.1 624.291C1168.49 623.989 1167.57 627.995 1166.13 633.199C1157.02 665.138 1156.54 697.359 1164.75 730.606C1182.27 801.688 1237.46 859.432 1306.61 879.073C1345.09 890.036 1384.75 888.289 1419.69 874.25C1436.01 867.62 1445.21 862.246 1460.04 850.656C1497.19 821.632 1518.89 780.541 1523.09 731.018C1526.58 689.757 1516.52 648.432 1493.56 610.272C1487.41 600.005 1471.44 579.959 1462.62 571.326C1430.68 540.29 1394.13 521.818 1352.2 515.478C1312.6 509.467 1273.58 516.949 1239 537.166C1226.88 544.254 1203.36 563.994 1185.61 581.826C1106.54 661.283 1088.78 747.691 1134.11 832.174C1146.36 854.901 1166.59 880.919 1199.96 916.722C1237.75 957.24 1251.47 977.46 1258.16 1002.38C1264.08 1024.72 1263.08 1042.84 1254.71 1062.3C1251.96 1068.76 1245.41 1079.65 1241.38 1084.73L1239.17 1087.48L1231.43 1080.37C1221.78 1071.6 1211.57 1064.39 1204.6 1061.45C1197.1 1058.36 1183.61 1056.65 1176.19 1057.92C1149.93 1062.46 1136.02 1081.48 1141.99 1104.81C1151.32 1141.61 1191.41 1146.66 1230.49 1116.13L1239.52 1109.07L1244.74 1116.55C1274.55 1159.22 1282.87 1218.79 1266.31 1269.92C1258.33 1294.4 1244.75 1317.03 1226.33 1336.52C1217.14 1346.3 1185.32 1371.51 1173.13 1378.77C1145.69 1395.1 1120.2 1405.28 1102.26 1407.05C1096.16 1407.62 1084.9 1406.22 1078.35 1404.09C1078.35 1404.09 1074.59 1403.4 1072.91 1404.71C1069.88 1407.08 1070 1411.62 1070 1411.62C1070.76 1415.11 1071.37 1415.77 1075.28 1417.71ZM1155.97 1102.5C1153.1 1091.37 1155.85 1084 1165.42 1077.77C1178.83 1069 1194.84 1070.09 1209.68 1080.71C1217.59 1086.32 1229.01 1096.55 1228.92 1097.75C1228.79 1099.32 1212.81 1110.91 1206.26 1114.09C1197.76 1118.36 1187.91 1121.18 1180.87 1121.47C1167.51 1121.93 1159.46 1115.87 1155.97 1102.5Z" fill="#3EC363"/>
<path d="M1198.21 575.044C1302.11 541.22 1380.59 577.89 1434.58 628.026C1461.71 653.222 1482.59 681.803 1497.1 706.465C1508.36 725.609 1515.43 741.791 1518.76 751.817C1521.66 738.112 1522.96 723.964 1522.65 709.679C1520.27 705.201 1517.69 700.568 1514.9 695.829C1499.56 669.744 1477.43 639.399 1448.45 612.494C1396.44 564.198 1322.18 526.946 1226.67 545.673C1225.85 546.292 1225.03 546.921 1224.21 547.559C1214.23 555.355 1205.41 564.119 1197.75 573.65L1198.21 575.044Z" fill="black"/>
<path d="M1170.76 622.478C1278.07 591.012 1361.77 623.601 1420.57 669.131C1465.95 704.271 1496.59 747.137 1512.43 774.252C1509.51 782.464 1505.97 790.436 1501.81 798.094C1491.43 777.141 1460.04 726.082 1408.16 685.905C1352.01 642.422 1272.02 611.715 1167.59 645.711L1165.67 639.874C1167.07 633.978 1168.77 628.171 1170.76 622.478Z" fill="black"/>
<path d="M1161.58 664.691C1267.23 634.835 1344.57 669.893 1396.36 718.411C1423.08 743.437 1442.91 771.914 1456.51 796.581C1464.4 810.908 1470.34 824.217 1474.31 835.058C1469.63 839.764 1464.61 844.223 1459.26 848.405C1458.65 848.881 1458.03 849.353 1457.42 849.819C1454.42 839.962 1448.25 824.565 1438.4 806.687C1425.65 783.552 1407.14 757.027 1382.42 733.879C1334.28 688.784 1262.22 656 1160.84 687.073C1160.64 679.562 1160.89 672.086 1161.58 664.691Z" fill="black"/>
<path d="M1421.82 870.266C1417.18 857.137 1411.43 843.15 1404.46 829.314C1386.37 793.383 1359.14 756.691 1319.98 740.288C1283.47 724.996 1247.17 716.649 1216.86 719.04C1198.33 720.502 1181.59 726.083 1168.69 736.797C1170.86 744.196 1173.48 751.535 1176.55 758.769C1185.93 747.72 1200.22 741.631 1218.84 740.162C1244.65 738.126 1277.48 745.251 1312.36 759.858C1344.58 773.355 1368.77 804.541 1385.98 838.702C1392.48 851.615 1397.85 864.698 1402.2 876.975C1408.86 875.162 1415.41 872.928 1421.82 870.266Z" fill="black"/>
<path d="M1104.88 1420.71C1101.26 1423.25 1093.02 1426.09 1086.2 1427.06C1043.97 1433.05 957.285 1405.99 907.345 1371.19C868.251 1343.92 840.574 1307.1 828.831 1266.76C820.907 1239.37 821.124 1214.39 829.418 1189.58L831.742 1182.51L824.975 1177.91C787.004 1152.11 770.56 1117.31 777.502 1077.6C779.394 1066.97 791.534 1039.1 803.5 1017.97C822.301 984.69 829.644 967.607 833.532 947.849C843.89 895.619 824.405 848.205 774.903 805.15C767.849 799.051 746.75 783.002 744.493 782.056C744.025 781.86 746.269 785.023 749.412 789.1C768.962 814.082 780.513 840.463 784.261 868.864C792.314 929.577 760.44 984.442 702.349 1009.92C670.035 1024.13 632.233 1028.06 594.624 1021.26C577.033 1018.03 566.553 1014.86 548.647 1007.36C503.804 988.565 469.297 957.774 448.294 917.696C430.804 884.302 426.004 849.022 434.393 814.594C436.626 805.334 444.703 786.719 450.004 778.439C469.265 748.645 497.189 728.536 534.332 717.658C569.4 707.366 608.579 708.226 647.978 720.14C661.786 724.318 690.653 737.337 713.442 749.571C814.98 804.087 861.407 872.606 847.987 948.082C844.325 968.394 834.319 992.486 815.349 1026.39C793.867 1064.76 787.964 1083.21 790.27 1104.57C792.408 1123.71 799.593 1138.45 814.15 1153.29C818.951 1158.21 828.846 1166.27 834.376 1169.89L837.4 1171.85L842.205 1164.97C848.242 1156.46 855.329 1149.16 860.855 1145.8C866.829 1142.25 878.889 1139.03 886.288 1139.06C912.485 1139.23 932.083 1152.97 934.519 1172.92C938.447 1204.39 902.582 1213.96 855.403 1194.19L844.504 1189.62L842.184 1196.47C828.926 1235.52 841.643 1285.54 874.786 1325.27C890.705 1344.28 911.242 1361.02 935.237 1374.52C947.22 1381.31 985.753 1397.69 999.69 1402C1031.05 1411.69 1058.47 1416.59 1075.9 1415.62C1081.82 1415.26 1091.9 1412.59 1097.31 1409.95C1097.31 1409.95 1100.6 1408.88 1102.62 1409.72C1106.28 1411.26 1107.73 1415.01 1107.73 1415.01C1108.23 1417.97 1107.88 1418.59 1104.88 1420.71ZM920.609 1172.92C919.474 1163.4 914.347 1157.72 903.225 1153.9C887.634 1148.52 872.988 1151.58 862.727 1162.3C857.238 1167.97 850.05 1177.92 850.555 1178.9C851.212 1180.17 870.193 1187.51 877.431 1189.24C886.88 1191.59 897.086 1192.57 903.793 1191.86C916.474 1190.43 921.944 1184.36 920.609 1172.92Z" fill="#E27639"/>
<path d="M697.823 746.303C643.168 739.439 601.242 746.333 569.008 760.508C536.659 774.733 513.304 796.634 496.695 820.752C480.07 844.894 470.383 871.008 465.29 893.134C460.852 912.418 460.065 927.928 460.802 936.058C452.414 924.143 445.656 911.504 440.7 898.475C441.288 895.273 441.966 891.98 442.741 888.616C448.165 865.05 458.521 836.978 476.574 810.764C494.642 784.526 520.6 759.903 557.308 743.761C585.573 731.332 619.761 724.132 660.808 724.808C662.347 725.412 663.883 726.035 665.417 726.678C677.04 731.55 687.965 737.307 698.117 743.803L697.823 746.303Z" fill="black"/>
<path d="M740.66 780.141C629.723 769.457 562.126 807.648 522.372 853.306C492.378 887.756 478.272 926.315 472.468 950.948C478.479 957.871 485.08 964.465 492.233 970.652C494.195 953.464 505.598 905.839 541.284 864.852C578.421 822.199 641.916 786.477 750.888 800.162L751.63 793.835C748.225 789.147 744.564 784.575 740.66 780.141Z" fill="black"/>
<path d="M764.101 813.59C712.515 809.01 671.348 815.399 638.764 828.806C603.09 843.482 578.542 866.221 561.912 890.657C545.316 915.043 536.485 941.281 532.216 963.44C529.878 975.58 528.866 986.734 528.766 995.901C535.121 999.36 541.734 1002.54 548.59 1005.42C549.738 1005.9 550.887 1006.37 552.037 1006.83C551.28 998.502 551.612 984.388 554.88 967.419C558.856 946.778 567.036 922.683 582.086 900.568C597.103 878.502 618.837 858.571 649.948 845.771C680.265 833.298 720.288 827.266 773.221 833.395C770.653 826.674 767.605 820.057 764.101 813.59Z" fill="black"/>
<path d="M782.778 895.088C783.304 887.808 783.225 880.492 782.567 873.193C767.263 866.736 750.12 864.547 732.431 865.84C702.636 868.019 671.028 879.988 641.801 897.63C609.82 916.935 596.888 951.425 592.302 983.301C590.594 995.18 589.998 1007.01 590.105 1018.08C597.796 1019.58 605.468 1020.63 613.077 1021.24C612.87 1010.27 613.381 998.419 615.086 986.564C619.464 956.133 631.372 927.953 656.05 913.056C683.484 896.496 711.385 886.41 735.751 884.628C753.829 883.306 769.745 886.505 782.778 895.088Z" fill="black"/>
</svg>
